 <svg  version="1.0" xmlns="http://www.w3.org/2000/svg"  width="900.000000pt" height="969.000000pt" viewBox="0 0 900.000000 969.000000"  preserveAspectRatio="xMidYMid meet">  <g transform="translate(0.000000,969.000000) scale(0.100000,-0.100000)" fill="#f46010" stroke="none"> <path d="M4440 8555 c-7 -8 -18 -15 -25 -15 -7 0 -15 -7 -19 -15 -3 -8 -14 -15 -25 -15 -11 0 -23 -5 -26 -11 -4 -5 -17 -15 -28 -20 -12 -5 -35 -18 -52 -29 -16 -11 -40 -24 -52 -29 -11 -5 -24 -15 -28 -20 -3 -6 -14 -11 -24 -11 -10 0 -24 -7 -31 -15 -7 -8 -21 -15 -31 -15 -11 0 -19 -4 -19 -9 0 -5 -28 -24 -62 -41 -80 -39 -107 -55 -121 -69 -6 -6 -20 -11 -32 -11 -12 0 -26 -5 -31 -10 -12 -12 -61 -41 -109 -66 -16 -8 -43 -23 -60 -34 -16 -11 -37 -22 -45 -26 -8 -3 -22 -10 -30 -15 -8 -5 -24 -14 -35 -19 -11 -6 -33 -19 -50 -30 -16 -11 -40 -24 -52 -29 -11 -5 -24 -15 -28 -20 -3 -6 -14 -11 -25 -11 -10 0 -20 -7 -24 -15 -3 -8 -16 -15 -30 -15 -13 0 -26 -7 -30 -15 -3 -8 -14 -15 -25 -15 -11 0 -22 -4 -26 -9 -3 -6 -29 -22 -58 -36 -82 -42 -119 -63 -130 -74 -6 -6 -19 -11 -28 -11 -9 0 -22 -7 -29 -15 -7 -8 -21 -15 -31 -15 -11 0 -19 -3 -19 -8 0 -8 -26 -23 -72 -42 -16 -7 -28 -16 -28 -21 0 -5 -9 -9 -19 -9 -11 0 -23 -5 -26 -11 -4 -5 -17 -15 -28 -20 -12 -5 -35 -18 -52 -28 -32 -21 -77 -46 -135 -76 -19 -10 -39 -24 -43 -32 -4 -7 -19 -13 -31 -13 -13 0 -26 -7 -30 -15 -3 -8 -14 -15 -24 -15 -11 0 -25 -7 -32 -15 -7 -8 -18 -15 -26 -15 -7 0 -35 -13 -62 -29 -27 -16 -59 -32 -70 -36 -12 -3 -22 -11 -22 -16 0 -5 -8 -9 -18 -9 -11 0 -29 -9 -42 -20 -13 -11 -28 -20 -33 -20 -6 0 -25 -11 -43 -25 -18 -14 -40 -25 -49 -25 -8 0 -18 -7 -21 -15 -4 -8 -17 -15 -30 -15 -12 0 -27 -6 -31 -12 -4 -7 -26 -22 -48 -33 -38 -18 -61 -33 -127 -77 -15 -10 -34 -18 -41 -18 -8 0 -20 -7 -27 -15 -7 -8 -21 -15 -31 -15 -10 0 -23 -9 -29 -20 -6 -11 -19 -20 -29 -20 -9 0 -66 -27 -125 -60 -59 -33 -112 -60 -116 -60 -5 0 -15 -6 -22 -13 -7 -6 -31 -21 -53 -32 -22 -11 -44 -26 -48 -32 -4 -7 -17 -13 -28 -13 -11 0 -22 -7 -25 -15 -4 -8 -17 -15 -30 -15 -14 0 -27 -6 -30 -14 -3 -8 -16 -17 -29 -20 -13 -3 -27 -16 -31 -29 -3 -12 -10 -27 -15 -33 -6 -7 -9 -796 -9 -1868 l-1 -1857 34 -40 c25 -29 41 -39 64 -39 36 0 101 -30 127 -59 11 -13 31 -21 50 -21 19 0 41 -10 61 -28 16 -16 61 -42 99 -58 37 -16 78 -39 90 -51 11 -13 28 -23 37 -23 9 0 22 -7 29 -15 7 -8 20 -15 30 -15 10 0 23 -7 30 -15 7 -8 27 -15 45 -15 25 0 40 -8 59 -31 14 -17 26 -34 26 -39 0 -5 10 -12 23 -15 48 -15 167 -76 179 -94 7 -10 25 -21 41 -25 15 -3 27 -11 27 -16 0 -6 7 -10 15 -10 18 0 93 -38 101 -52 4 -5 48 -30 100 -54 51 -25 98 -53 104 -64 6 -11 21 -20 34 -20 13 0 26 -7 30 -15 3 -8 16 -15 30 -15 13 0 26 -7 30 -15 3 -8 15 -15 26 -15 12 0 33 -13 47 -30 13 -17 30 -30 36 -30 17 0 201 -94 210 -107 4 -7 61 -38 125 -68 64 -31 122 -62 127 -69 6 -7 49 -32 96 -55 47 -23 97 -53 109 -66 13 -14 31 -25 41 -25 9 0 22 -7 29 -15 7 -8 21 -15 30 -15 10 0 33 -18 50 -40 25 -32 38 -40 65 -40 18 0 38 -7 45 -15 8 -9 29 -15 56 -15 34 0 44 -4 49 -20 4 -11 22 -27 40 -34 18 -8 38 -24 45 -35 6 -12 17 -21 24 -21 8 0 49 -18 92 -40 43 -22 83 -40 89 -40 7 0 22 -11 35 -25 23 -25 151 -95 173 -95 7 0 18 -9 25 -20 7 -11 38 -32 70 -47 32 -14 71 -43 90 -64 39 -46 50 -47 90 -14 17 14 34 25 38 25 4 0 36 30 70 66 35 36 67 63 72 60 5 -3 18 4 28 15 10 11 24 17 32 14 15 -5 62 38 62 57 0 6 10 8 25 4 18 -5 27 -1 35 14 7 14 17 19 29 15 10 -3 24 1 31 10 7 8 21 15 31 15 10 0 20 9 24 19 7 22 37 33 83 31 28 -1 41 7 86 54 29 31 61 56 70 56 10 0 24 7 32 15 9 8 24 15 35 15 10 0 19 4 19 9 0 5 13 14 29 19 16 6 37 22 46 36 14 21 25 26 59 26 25 0 51 8 66 20 27 21 46 25 52 11 2 -5 15 -13 30 -16 21 -5 29 -3 34 10 9 21 -10 33 -42 27 -27 -5 -35 22 -9 32 13 5 15 79 15 586 l0 580 -42 -2 c-39 -3 -43 -1 -46 22 -5 35 -16 46 -86 81 -33 17 -69 38 -79 47 -20 18 -107 66 -149 83 -16 6 -28 15 -28 20 0 5 -9 9 -19 9 -11 0 -26 6 -34 14 -18 18 -106 74 -182 116 -33 18 -67 39 -76 46 -8 8 -27 14 -41 14 -14 0 -28 7 -32 15 -3 8 -16 15 -30 15 -13 0 -26 7 -30 15 -3 8 -15 15 -26 15 -12 0 -33 13 -48 29 -24 25 -80 65 -137 97 -11 6 -78 44 -150 84 -71 40 -157 87 -190 104 -33 16 -96 54 -140 83 -44 29 -86 53 -93 53 -8 0 -31 14 -52 30 -21 17 -43 30 -49 30 -6 0 -11 4 -11 9 0 5 -12 14 -27 20 -16 7 -48 23 -73 36 -25 14 -50 25 -57 25 -6 0 -22 9 -35 21 -35 31 -188 110 -200 103 -5 -4 -23 8 -38 25 -44 48 -87 44 -144 -14 l-45 -45 65 0 c63 0 107 -15 184 -61 8 -5 36 -20 62 -33 26 -12 62 -34 80 -48 18 -13 56 -35 83 -48 28 -13 79 -42 115 -65 94 -60 167 -104 230 -137 30 -17 60 -34 66 -39 6 -5 47 -27 90 -50 44 -22 93 -50 111 -62 17 -12 60 -38 94 -57 35 -19 117 -70 182 -114 65 -43 158 -96 206 -119 100 -47 248 -136 275 -166 11 -12 27 -21 37 -21 10 0 20 -4 23 -9 3 -4 43 -27 88 -51 90 -46 124 -70 146 -101 18 -26 8 -67 -21 -79 -12 -5 -44 -23 -72 -39 -27 -17 -70 -42 -95 -56 -25 -14 -52 -30 -60 -35 -8 -6 -26 -15 -40 -21 -33 -13 -94 -48 -147 -81 -23 -15 -53 -30 -66 -34 -27 -6 -43 -29 -27 -39 9 -6 61 12 70 23 3 4 16 13 30 19 14 7 48 26 75 42 28 17 60 35 73 41 12 5 25 16 28 25 3 8 10 13 14 10 11 -7 88 33 120 62 14 13 30 23 35 23 6 0 43 16 82 35 40 19 92 38 117 41 43 6 46 5 57 -22 7 -16 12 -59 11 -96 -1 -37 3 -70 8 -73 5 -3 7 -25 4 -48 -3 -23 -6 -208 -7 -412 -2 -271 -6 -378 -15 -399 -15 -35 -60 -79 -73 -71 -8 6 -108 -44 -189 -93 -19 -12 -42 -22 -52 -22 -9 0 -18 -3 -20 -8 -7 -17 -89 -72 -163 -109 -173 -87 -234 -121 -276 -151 -24 -18 -48 -32 -54 -32 -17 0 -119 -109 -139 -148 -20 -39 -47 -39 -57 -2 -4 14 -7 276 -8 583 -1 543 -2 558 -21 577 -11 11 -30 20 -43 20 -12 0 -38 9 -57 20 -19 11 -47 25 -62 31 -14 6 -29 17 -32 25 -5 14 -46 20 -46 7 1 -16 28 -43 42 -43 9 0 21 -7 28 -15 7 -8 19 -15 27 -15 9 0 33 -19 54 -43 l38 -42 0 -498 c0 -289 -4 -497 -9 -497 -5 0 -12 5 -15 11 -5 7 -13 5 -24 -5 -13 -12 -21 -13 -37 -3 -49 28 -112 63 -146 82 -110 59 -158 89 -158 96 0 5 -19 13 -42 20 -23 6 -61 23 -83 39 -88 60 -204 123 -245 133 -14 4 -63 31 -110 62 -46 30 -90 55 -97 55 -6 0 -32 16 -57 35 -25 19 -62 43 -83 55 -53 29 -94 51 -118 63 -92 47 -383 208 -435 242 -36 23 -73 45 -84 49 -10 3 -61 31 -112 61 -51 30 -95 55 -98 55 -5 0 -118 65 -156 90 -8 6 -26 16 -40 22 -14 7 -38 21 -55 33 -53 36 -176 104 -208 114 -18 6 -52 29 -76 51 -24 22 -49 40 -55 40 -6 0 -36 13 -66 30 -30 16 -62 29 -71 30 -9 0 -19 7 -23 15 -3 8 -10 15 -16 15 -7 0 -35 15 -63 34 -29 18 -73 41 -99 51 -27 10 -58 28 -70 40 -13 13 -40 27 -61 33 -48 13 -137 72 -171 113 l-26 31 0 1749 0 1749 26 10 c41 16 60 12 109 -21 25 -17 49 -28 52 -25 11 10 -28 45 -62 56 -35 12 -105 91 -105 119 0 10 22 25 63 40 59 23 195 95 317 166 77 46 197 105 212 105 7 0 23 10 34 23 12 12 68 46 125 76 57 29 121 63 141 75 74 43 414 231 453 251 22 11 51 28 65 38 13 9 32 17 41 17 9 0 22 7 29 16 8 8 30 23 49 33 75 38 217 115 241 131 27 19 91 54 427 234 70 38 153 84 183 102 30 18 84 48 120 67 36 18 133 71 215 117 142 79 209 115 300 165 127 71 193 103 218 109 30 7 87 -16 182 -73 28 -17 76 -44 109 -60 32 -17 64 -35 71 -41 8 -6 42 -26 77 -44 55 -28 168 -89 327 -176 25 -14 82 -45 126 -69 44 -24 91 -51 105 -61 14 -9 93 -52 175 -95 83 -43 157 -84 165 -91 9 -7 41 -25 73 -38 31 -14 57 -30 57 -36 0 -5 8 -10 18 -10 9 0 33 -11 52 -24 19 -13 80 -47 135 -76 55 -29 116 -62 135 -74 48 -29 83 -48 167 -91 39 -20 77 -43 83 -51 7 -8 18 -14 25 -14 8 0 48 -20 89 -45 42 -25 79 -45 82 -45 3 0 67 -35 142 -77 271 -152 316 -177 557 -308 193 -106 245 -140 245 -164 0 -9 -18 -30 -40 -47 -22 -16 -40 -32 -40 -36 0 -13 24 -9 47 7 33 23 111 46 146 43 l32 -3 0 -547 0 -547 -29 -30 c-17 -17 -38 -31 -47 -31 -10 0 -42 -14 -71 -31 -51 -31 -313 -159 -324 -159 -7 0 -72 -48 -104 -76 -14 -12 -59 -36 -100 -53 -152 -60 -216 -98 -273 -161 -29 -33 -59 -60 -64 -60 -6 0 -14 10 -19 23 -4 12 -10 274 -13 582 l-6 560 -49 12 c-27 7 -54 17 -60 23 -5 5 -19 10 -30 10 -17 0 -14 -6 18 -39 27 -28 41 -52 47 -85 12 -65 10 -916 -2 -939 -8 -14 -17 -17 -42 -12 -48 10 -358 169 -365 187 -4 8 -67 42 -147 80 -22 10 -51 25 -65 33 -14 8 -41 22 -60 31 -19 9 -58 31 -86 49 -28 19 -75 44 -105 58 -30 13 -60 31 -68 40 -7 10 -20 17 -27 17 -15 0 -87 35 -126 62 -14 10 -33 18 -41 18 -8 0 -25 8 -38 19 -13 10 -64 40 -114 66 -49 26 -97 53 -105 60 -8 7 -58 33 -110 59 -123 59 -200 102 -226 127 -11 10 -27 19 -35 19 -8 0 -27 9 -44 20 -16 12 -43 28 -60 36 -71 35 -196 118 -225 149 l-25 27 -3 490 c-2 298 1 495 6 500 13 13 119 -9 159 -33 18 -12 34 -16 37 -10 10 15 -34 50 -71 57 -22 4 -54 26 -95 65 -106 101 -98 140 -99 -473 -2 -642 -2 -643 -18 -662 -11 -13 -9 -17 13 -26 15 -5 36 -26 47 -45 12 -19 28 -35 37 -35 10 0 40 -12 67 -25 28 -14 55 -25 62 -25 6 0 23 -13 36 -30 14 -16 30 -30 36 -30 18 0 146 -71 172 -96 16 -15 37 -24 56 -24 21 0 37 -7 46 -20 14 -20 200 -120 223 -120 6 0 19 -10 30 -21 18 -20 130 -79 151 -79 5 0 23 -13 39 -30 20 -21 39 -30 62 -30 24 0 40 -8 59 -30 13 -16 33 -30 43 -30 10 0 23 -7 30 -15 7 -8 21 -15 31 -15 10 0 20 -4 23 -9 4 -5 44 -28 89 -50 46 -22 89 -47 96 -55 13 -15 233 -126 251 -126 5 0 24 -12 42 -27 41 -35 91 -63 111 -63 8 0 17 -7 21 -15 3 -8 16 -15 30 -15 13 0 26 -7 30 -15 3 -8 15 -15 26 -15 12 0 33 -14 47 -30 19 -23 33 -30 60 -30 26 0 40 -7 55 -25 11 -14 42 -35 69 -46 27 -12 59 -35 70 -50 11 -16 26 -29 34 -29 7 0 37 29 66 64 35 41 62 65 75 65 12 1 27 8 34 16 7 9 19 14 26 11 7 -2 20 4 30 15 9 10 26 19 36 19 10 0 21 7 24 15 4 8 16 15 29 15 12 0 28 7 35 15 9 11 23 13 49 9 36 -6 40 -3 90 54 29 34 58 59 65 56 13 -5 299 134 304 148 2 4 14 8 27 8 14 0 29 9 35 20 6 11 19 20 30 20 10 0 23 7 28 17 8 13 21 15 81 10 72 -6 98 3 61 23 -20 11 -20 18 -20 630 l0 620 -36 15 c-20 8 -43 15 -52 15 -8 0 -32 16 -53 35 -22 19 -45 35 -53 35 -8 0 -16 7 -20 15 -3 8 -14 15 -24 15 -11 0 -25 7 -32 15 -7 8 -20 15 -29 15 -9 0 -23 6 -29 12 -13 13 -173 102 -202 114 -8 3 -22 10 -30 15 -8 5 -33 18 -55 29 -22 11 -53 29 -70 40 -16 11 -43 26 -60 34 -36 18 -123 67 -186 106 -25 15 -55 30 -66 34 -12 4 -24 13 -27 21 -3 8 -16 15 -30 15 -13 0 -26 7 -30 15 -3 8 -12 15 -21 15 -8 0 -32 10 -53 23 -20 13 -95 54 -167 92 -71 37 -137 74 -146 81 -8 8 -22 14 -30 14 -8 0 -20 5 -26 11 -12 12 -33 25 -108 64 -27 14 -72 40 -100 56 -27 16 -60 34 -72 39 -11 5 -24 14 -28 19 -3 6 -15 11 -25 11 -11 0 -24 9 -30 20 -6 11 -19 20 -30 20 -10 0 -42 13 -69 30 -28 16 -81 45 -118 65 -78 41 -96 51 -120 65 -10 6 -28 14 -40 19 -11 6 -24 15 -28 20 -3 6 -14 11 -25 11 -10 0 -20 7 -24 15 -3 8 -15 15 -26 15 -11 0 -23 7 -26 15 -4 8 -14 15 -24 15 -10 0 -23 7 -30 15 -7 8 -16 15 -20 15 -9 0 -161 87 -174 100 -5 5 -18 10 -27 10 -9 0 -22 7 -29 15 -7 8 -18 15 -26 15 -7 0 -55 24 -106 53 -83 48 -171 96 -278 153 -19 11 -39 25 -43 32 -4 6 -16 12 -26 12 -10 0 -24 7 -31 15 -7 8 -20 15 -30 15 -10 0 -20 7 -24 15 -3 8 -13 15 -22 15 -9 0 -33 14 -54 30 -41 33 -80 39 -100 15z"/> <path d="M4325 7336 c-19 -8 -25 -15 -17 -20 13 -8 52 10 52 24 0 12 2 12 -35 -4z"/> <path d="M4243 7283 c-20 -8 -15 -23 7 -23 11 0 20 7 20 15 0 15 -6 17 -27 8z"/> <path d="M4154 7235 c-17 -8 -36 -21 -43 -29 -8 -9 -19 -16 -25 -16 -18 0 -94 -38 -101 -51 -16 -25 10 -19 89 21 47 23 87 48 90 56 3 8 12 14 21 14 8 0 15 5 15 10 0 13 -7 12 -46 -5z"/> <path d="M4785 7180 c-3 -5 9 -17 27 -27 18 -9 42 -23 53 -30 11 -7 51 -28 89 -48 38 -19 77 -42 86 -50 9 -8 21 -15 27 -15 6 0 16 -7 23 -15 15 -18 53 -20 48 -4 -5 14 -104 69 -124 69 -8 0 -14 4 -14 9 0 11 -113 79 -145 87 -13 3 -29 12 -36 20 -13 16 -25 18 -34 4z"/> <path d="M3925 7099 c-4 -6 -5 -13 -2 -16 7 -7 27 6 27 18 0 12 -17 12 -25 -2z"/> <path d="M3833 7053 c-36 -18 -43 -33 -15 -33 9 0 28 12 41 25 27 29 20 31 -26 8z"/> <path d="M5165 6960 c3 -5 13 -10 21 -10 8 0 14 5 14 10 0 6 -9 10 -21 10 -11 0 -17 -4 -14 -10z"/> <path d="M3655 6949 c-4 -6 -5 -13 -2 -16 7 -7 27 6 27 18 0 12 -17 12 -25 -2z"/> <path d="M5210 6937 c0 -14 54 -47 76 -47 26 0 14 15 -31 37 -29 14 -45 18 -45 10z"/> <path d="M5320 6876 c0 -10 61 -48 67 -42 10 10 -28 46 -49 46 -10 0 -18 -2 -18 -4z"/> <path d="M3478 6859 c-10 -5 -18 -14 -18 -19 0 -14 34 -12 48 2 26 26 5 38 -30 17z"/> <path d="M3393 6813 c-13 -8 -23 -22 -23 -29 0 -9 -11 -14 -28 -14 -16 0 -36 -8 -46 -19 -15 -16 -61 -40 -108 -55 -10 -3 -18 -12 -18 -21 0 -19 14 -19 30 0 7 8 21 15 31 15 10 0 20 4 23 8 3 5 36 24 73 42 67 32 113 66 113 82 0 13 -23 9 -47 -9z"/> <path d="M5430 6812 c0 -12 72 -58 114 -72 20 -6 38 -16 41 -21 4 -5 16 -9 28 -9 20 0 20 2 -8 24 -16 13 -45 29 -65 36 -19 7 -42 18 -50 25 -20 17 -60 29 -60 17z"/> <path d="M5660 6692 c0 -16 38 -44 55 -40 14 3 14 6 -5 26 -21 22 -50 30 -50 14z"/> <path d="M3105 6640 c-3 -5 3 -10 14 -10 12 0 21 5 21 10 0 6 -6 10 -14 10 -8 0 -18 -4 -21 -10z"/> <path d="M5750 6631 c0 -13 20 -27 80 -52 30 -13 59 -29 63 -36 4 -7 19 -13 32 -13 14 0 25 -5 25 -11 0 -5 25 -21 55 -35 30 -14 57 -30 60 -35 8 -12 35 -12 35 1 0 6 -6 10 -13 10 -7 0 -36 15 -64 34 -28 19 -76 46 -107 60 -30 14 -58 31 -61 36 -7 12 -79 50 -95 50 -5 0 -10 -4 -10 -9z"/> <path d="M3004 6585 c-60 -43 -52 -45 23 -5 68 37 72 40 46 40 -11 0 -42 -16 -69 -35z"/> <path d="M7494 6555 c-18 -14 -18 -14 3 -15 23 0 39 15 25 24 -5 3 -18 -1 -28 -9z"/> <path d="M2873 6512 c-32 -16 -43 -32 -24 -32 11 0 81 40 81 46 0 8 -26 2 -57 -14z"/> <path d="M7388 6503 c-10 -3 -18 -11 -18 -19 0 -18 11 -18 35 -1 20 15 10 26 -17 20z"/> <path d="M1443 6487 c5 -15 37 -22 37 -9 0 5 -9 12 -21 15 -13 3 -19 1 -16 -6z"/> <path d="M2750 6444 c-54 -34 -73 -54 -51 -54 7 0 14 7 17 15 4 8 16 15 29 15 12 0 28 7 35 15 7 8 21 15 31 15 11 0 19 7 19 15 0 23 -20 18 -80 -21z"/> <path d="M1490 6456 c0 -9 7 -16 16 -16 17 0 14 22 -4 28 -7 2 -12 -3 -12 -12z"/> <path d="M7265 6431 c-11 -10 -40 -26 -64 -35 -25 -10 -58 -28 -74 -42 -16 -13 -32 -24 -37 -24 -5 0 -29 -13 -52 -29 -24 -16 -57 -33 -73 -37 -17 -4 -43 -20 -58 -36 -16 -15 -33 -28 -39 -28 -6 0 -9 -3 -6 -6 6 -5 11 -3 76 29 19 9 40 17 48 17 8 0 14 3 14 8 0 4 21 19 47 32 27 14 53 31 59 39 6 8 16 11 21 8 6 -4 16 0 23 8 7 8 18 15 25 15 7 0 29 14 50 30 21 17 45 30 54 30 18 0 41 18 41 32 0 15 -35 8 -55 -11z"/> <path d="M6144 6405 c30 -26 46 -31 46 -16 0 11 -45 41 -62 41 -7 0 0 -11 16 -25z"/> <path d="M1580 6412 c0 -16 130 -92 157 -92 15 0 13 4 -7 20 -20 16 -92 56 -142 78 -5 2 -8 -1 -8 -6z"/> <path d="M2625 6381 c-11 -5 -29 -18 -39 -30 -11 -11 -27 -21 -37 -21 -11 0 -24 -9 -31 -20 -7 -11 -22 -20 -34 -20 -12 0 -27 -6 -33 -14 -6 -8 -33 -23 -60 -35 -27 -11 -51 -27 -54 -35 -5 -13 -2 -13 21 -4 15 7 34 17 42 24 8 6 36 19 63 29 26 10 47 21 47 25 0 4 11 11 25 14 14 4 25 11 25 16 0 5 25 21 56 35 30 14 52 30 49 35 -7 12 -13 12 -40 1z"/> <path d="M6225 6370 c-7 -12 18 -24 37 -18 8 3 5 9 -9 16 -14 8 -24 9 -28 2z"/> <path d="M1762 6298 c3 -7 15 -18 29 -25 119 -56 149 -72 172 -92 9 -7 26 -11 39 -9 22 3 -33 40 -179 120 -38 21 -66 23 -61 6z"/> <path d="M6330 6290 c0 -12 7 -20 18 -20 9 -1 42 -11 72 -24 30 -14 59 -22 64 -19 19 12 -64 62 -126 77 -24 5 -28 3 -28 -14z"/> <path d="M6522 6193 c15 -15 31 -23 35 -19 9 8 -32 46 -50 46 -7 0 1 -12 15 -27z"/> <path d="M2030 6150 c0 -5 7 -10 15 -10 8 0 15 5 15 10 0 6 -7 10 -15 10 -8 0 -15 -4 -15 -10z"/> <path d="M4399 6139 c-20 -10 -46 -30 -57 -44 -11 -14 -27 -25 -35 -25 -8 0 -17 -7 -21 -15 -4 -11 -22 -15 -70 -15 -89 0 -127 -17 -241 -106 -22 -17 -58 -35 -80 -38 -46 -8 -150 -59 -245 -121 -104 -66 -137 -85 -149 -85 -21 0 -131 -90 -159 -130 -42 -59 -66 -102 -75 -135 -4 -16 -10 -261 -13 -544 -3 -283 -6 -517 -8 -520 -2 -3 2 -40 8 -81 9 -60 15 -76 31 -79 45 -8 46 -3 45 636 l-1 603 75 78 c72 74 80 79 136 90 50 9 66 18 98 51 22 23 46 41 55 41 10 0 17 5 17 10 0 6 9 10 20 10 11 0 36 16 55 36 19 19 39 33 44 30 5 -4 16 3 25 15 13 20 20 21 76 15 l61 -7 47 52 c111 125 95 114 149 102 39 -9 51 -9 64 3 8 8 29 14 46 14 22 0 39 9 60 33 16 17 43 39 59 47 23 13 30 24 35 58 6 47 2 49 -52 21z"/> <path d="M2090 6121 c0 -18 24 -66 40 -78 13 -10 15 -154 17 -1216 l1 -1205 25 -53 c29 -62 68 -96 150 -128 32 -13 62 -32 68 -42 5 -11 14 -19 20 -19 15 0 97 -39 139 -65 100 -63 181 -98 179 -77 0 13 -140 97 -258 156 -62 32 -136 73 -162 91 -27 18 -62 36 -78 40 -36 8 -43 31 -30 99 5 31 8 533 7 1266 l-3 1215 -35 6 c-19 3 -45 9 -57 13 -14 4 -23 3 -23 -3z"/> <path d="M6795 4674 c-16 -13 -52 -36 -80 -49 -27 -14 -93 -49 -145 -77 -52 -28 -169 -89 -260 -136 -91 -47 -192 -100 -225 -118 -33 -18 -82 -45 -110 -59 -27 -15 -90 -47 -139 -73 l-88 -47 -4 -530 c-2 -291 -6 -569 -9 -618 -5 -78 -4 -88 12 -94 10 -3 96 -43 192 -89 95 -46 175 -84 178 -84 11 0 628 -311 642 -325 17 -15 91 -11 91 5 0 5 33 25 73 46 39 20 88 47 107 59 19 12 55 32 80 44 25 12 59 31 75 42 17 10 37 21 45 25 8 3 22 9 30 14 55 32 150 78 175 84 16 4 32 11 35 14 3 4 28 18 55 32 28 14 52 28 55 31 3 4 30 18 60 33 30 15 71 37 90 48 19 12 61 34 94 50 l58 30 -6 351 c-4 194 -9 399 -11 457 -3 58 -7 165 -10 238 -3 74 -7 137 -9 140 -2 4 -35 23 -73 42 -37 19 -70 37 -73 40 -10 10 -128 80 -136 80 -4 0 -15 6 -23 14 -9 7 -36 25 -61 38 -180 99 -396 223 -450 258 -8 6 -24 14 -35 19 -11 5 -37 21 -58 35 -21 14 -42 26 -46 26 -5 0 -14 7 -21 15 -18 21 -40 18 -75 -11z m156 -147 c41 -23 126 -71 187 -107 62 -36 125 -71 140 -79 15 -7 36 -21 47 -30 11 -10 52 -33 90 -51 39 -19 72 -37 75 -40 3 -3 38 -25 78 -49 95 -57 105 -75 63 -113 -17 -15 -31 -32 -31 -38 0 -5 -9 -10 -19 -10 -11 0 -23 -4 -26 -10 -3 -5 -19 -10 -34 -10 -26 0 -51 -16 -51 -32 0 -18 60 -8 72 12 7 11 18 20 25 20 7 0 27 8 45 18 51 27 137 55 153 49 12 -5 14 -53 15 -289 1 -156 5 -384 9 -508 8 -280 9 -279 -121 -345 -35 -17 -99 -51 -143 -74 -44 -24 -120 -65 -170 -91 -377 -198 -478 -258 -513 -307 -46 -63 -51 -3 -52 579 l0 517 -47 7 c-43 6 -110 36 -199 90 -17 11 -70 42 -117 71 -48 28 -96 55 -109 58 -13 4 -37 18 -55 31 -17 13 -38 24 -45 24 -7 0 -22 7 -32 15 -24 18 -49 20 -44 3 5 -15 39 -34 187 -109 57 -29 105 -59 108 -66 3 -7 10 -13 17 -13 13 0 76 -32 127 -63 103 -64 118 -77 128 -114 12 -42 14 -841 2 -883 -4 -14 -15 -26 -25 -28 -25 -5 -122 26 -137 44 -6 8 -17 14 -24 14 -7 0 -61 25 -120 55 -60 30 -114 55 -120 55 -7 0 -20 9 -30 20 -10 11 -25 20 -32 20 -30 0 -325 154 -348 182 l-24 29 -1 430 c0 237 3 448 6 469 5 30 13 42 40 56 31 17 34 17 52 1 10 -9 30 -17 45 -17 16 0 30 -8 37 -20 10 -18 68 -50 91 -50 19 0 8 21 -16 30 -14 5 -50 26 -80 45 -31 19 -60 35 -66 35 -16 0 -109 91 -109 107 0 7 10 18 23 23 124 51 187 81 272 128 122 68 247 131 259 132 5 0 17 7 26 15 20 18 180 105 193 105 5 0 36 16 67 35 67 40 124 63 160 64 14 0 59 -18 101 -42z"/> <path d="M7420 3933 c-8 -3 -24 -13 -35 -23 -11 -9 -36 -23 -55 -30 -19 -8 -46 -22 -59 -32 -13 -10 -28 -18 -33 -18 -6 0 -30 -13 -55 -30 -24 -16 -50 -30 -58 -30 -8 0 -17 -5 -20 -10 -4 -6 -28 -21 -55 -35 -26 -13 -50 -28 -52 -32 -1 -4 -20 -17 -41 -27 -20 -11 -35 -21 -33 -23 2 -3 12 0 23 5 10 5 54 27 98 49 120 60 169 86 175 94 3 3 30 18 60 33 30 15 69 36 85 46 17 11 39 24 50 29 29 12 53 41 34 40 -8 0 -21 -3 -29 -6z"/> <path d="M6855 3610 c-3 -5 1 -10 9 -10 8 0 18 5 21 10 3 6 -1 10 -9 10 -8 0 -18 -4 -21 -10z"/> <path d="M3130 4037 c-31 -20 -33 -22 -13 -25 24 -4 83 23 83 38 0 16 -33 10 -70 -13z"/> <path d="M3005 3967 c-12 -10 -14 -16 -7 -21 13 -8 52 10 52 24 0 14 -23 12 -45 -3z"/> <path d="M2914 3905 c-14 -14 -31 -25 -38 -25 -7 0 -33 -11 -57 -25 -24 -14 -51 -28 -59 -31 -84 -36 -182 -89 -231 -126 -20 -16 -43 -28 -51 -28 -8 0 -23 -9 -33 -20 -25 -28 -5 -25 39 5 20 14 41 25 47 25 16 0 127 60 140 76 6 8 19 14 27 14 14 0 39 14 122 70 14 9 37 20 52 23 29 8 100 67 80 67 -7 0 -24 -11 -38 -25z"/> <path d="M2760 3210 c0 -5 15 -17 33 -26 17 -9 46 -27 62 -39 33 -25 196 -105 213 -105 6 0 19 -11 29 -24 10 -13 30 -27 43 -31 35 -11 126 -63 140 -80 7 -8 20 -15 30 -15 9 0 34 -11 54 -25 21 -14 54 -32 74 -41 20 -8 46 -23 57 -33 25 -22 83 -46 92 -37 10 10 -15 31 -72 61 -27 14 -56 32 -65 39 -17 15 -26 20 -167 90 -54 26 -100 52 -103 56 -8 12 -68 40 -85 40 -9 0 -18 7 -21 15 -4 8 -12 15 -20 15 -7 0 -55 25 -107 55 -51 30 -98 55 -104 55 -5 0 -18 9 -28 20 -19 21 -55 27 -55 10z"/> <path d="M3620 2734 c0 -11 45 -43 62 -44 10 0 33 -13 51 -30 19 -16 41 -30 49 -30 9 0 26 -8 39 -17 13 -10 33 -23 44 -29 192 -105 227 -125 267 -151 36 -25 68 -28 75 -8 2 6 -20 23 -49 38 -29 15 -89 48 -133 72 -44 25 -105 57 -135 72 -30 14 -62 31 -70 38 -8 6 -31 18 -50 26 -19 7 -54 26 -76 41 -39 26 -74 36 -74 22z"/> <path d="M4736 2480 c-22 -17 -44 -30 -49 -30 -5 0 -20 -9 -33 -19 -31 -25 -14 -38 24 -18 15 8 45 24 66 36 41 22 58 40 50 53 -8 13 -16 9 -58 -22z"/> <path d="M4569 2384 c-11 -14 -10 -15 11 -12 13 1 25 9 28 16 5 17 -23 15 -39 -4z"/> </g> </svg> 