<svg enable-background="new 0 0 698.26 258.06" viewBox="0 0 698.26 258.06" xmlns="http://www.w3.org/2000/svg" xmlns:xlink="http://www.w3.org/1999/xlink"><clipPath id="a"><path d="m0-24.17h698.26v282.23h-698.26z"/></clipPath><g clip-path="url(#a)"><g stroke="#000" stroke-miterlimit="10" stroke-width="2"><path d="m548.04 807.32c27.08 16.81 76.77 67.62 36.05 92.27-39.04 35.86-61.08-39.41-95.45-49.69 13.33-21.53 34.72-36.86 59.4-42.58z" fill="#f6d2a2"/><path d="m239.26 873.63c-30.36 4.62-47.4 31.96-72.61 45.8-8.93 8.25-22.86 7.69-31.11-1.24-1.91-2.06-3.4-4.48-4.4-7.1-3.57.09-6.98-1.49-9.23-4.26-22.01-35.51 22.9-60.18 46.51-77.58 33.2-6.39 53.62 21.83 70.84 44.38z" fill="#f6d2a2"/><path d="m398.19 293.77c-2.32-2.42-3.34-1.15-17.93-4.56-11.61-2.71-17.42-4.07-18.93-5.03-.7-.44-2.79-1.93-4.07-1.2-1.13.65-1.07 2.71-1.05 3.74.12 4.7-.16 9.41.09 14.11.03.58.08 4.46.18 12.22.06 5 .05 4.76.09 7.73.2 13.72.51 15.46.93 17.07.82 3.19 1.75 6.77 4.79 10.06 4.22 4.57 9.69 5.58 13.18 6.23 4.02.75 7.98 1.48 11.98-.48 3.93-1.93 5.66-5.36 8.15-10.3 3.18-6.32 4.21-11.75 5.03-16.29 1.59-8.75 1.3-15.35 1.2-17.25-.48-8.66-.72-12.99-3.64-16.05z" fill="#fff"/><path d="m314.96 292.96c2.32-2.42 3.34-1.15 17.93-4.56 11.61-2.71 17.42-4.07 18.93-5.03.79-.5 2.93-1.94 4.07-1.2 1.08.7.69 2.98.48 4.55-.62 4.57 0 9.22-.09 13.83-.1 5.51.01 9.94.09 12.76.1 3.59.15 3.42.27 7.19.28 9.03.4 13.6-.45 16.71-.58 2.1-1.76 6.22-5.33 9.89-4.5 4.61-9.99 5.64-13.18 6.23-4.02.75-7.98 1.48-11.98-.48-3.93-1.93-5.66-5.36-8.15-10.3-3.18-6.32-4.21-11.75-5.03-16.29-1.59-8.75-1.3-15.35-1.2-17.25.48-8.66.72-12.99 3.64-16.05z" fill="#fff"/><path d="m284.46 278.54c.17-2.95.68-10.16 5.51-17.01 2.33-3.3 4.88-5.41 6.47-6.71 2.02-1.65 6.4-4.89 12.7-6.95 5.28-1.73 9.52-1.83 14.14-1.92 17.55-.31 25.09-.27 30.67-.48 11.7-.44 11.6-2.34 23.96-2.88 11.52-.5 16.94.58 21.08 1.92 5.7 1.83 9.6 4.33 12.94 6.47 3.5 2.25 10.06 6.53 16.05 14.38 3.22 4.22 5.22 6.66 6.47 10.78 2.54 8.4-.21 15.67-.96 17.49-.86 2.1-4.02 9-11.74 13.18-6.9 3.73-13.49 3.16-16.29 2.88-3.62-.37-3.76-1.04-16.05-5.27-7.29-2.51-7.77-2.45-13.66-4.55-9.44-3.37-10-4.42-13.74-5.33-8.13-1.98-16.99.61-20.13 1.78-7 2.63-6.01 4.42-14.11 7.98-3.94 1.73-9.51 4.11-16.77 4.31-4.62.13-11.92.33-17.97-4.31-9.63-7.39-8.81-21.49-8.57-25.76z" fill="#f6d2a2"/><path d="m80.81 200.68c-123.22-34.09-31.53-191.41 68.18-126.98z" fill="#74cddd"/><circle cx="98.16" cy="135.07" r="27.59"/><path d="m614.35 200.68c123.23-34.09 31.53-191.4-68.18-126.98z" fill="#74cddd"/><circle cx="597" cy="135.07" r="27.59"/><path d="m342.14 2.56c50.11-1.96 137.76-5.38 204.82 53.85 15.64 13.81 34.52 30.26 46.97 60.86 45.45 111.7 28.68 232.29 36.28 350.3 6.02 101.38 19.21 218.52-27.82 312.59-49.18 98.65-173.36 123.17-275.16 119.87-80.01-2.87-176.66-28.68-221.82-102.09-53.05-86.03-27.96-213.36-24.09-308.72 5.82-143.33-35.76-226.88 6.45-337.11 13.58-35.47 27.25-55.79 40.94-71.25 64.17-72.47 162.8-76.32 213.43-78.3z" fill="#74cddd"/><ellipse cx="227.66" cy="166.36" fill="#fff" rx="97.67" ry="91.69"/><ellipse cx="475.8" cy="166.36" fill="#fff" rx="97.67" ry="91.69"/></g><ellipse cx="469.69" cy="210.1" fill="#010101" rx="28.16" ry="31.06"/><ellipse cx="479.58" cy="217.18" fill="#fff" rx="6.6" ry="7.88"/><ellipse cx="239.26" cy="210.1" fill="#010101" rx="28.64" ry="31.06"/><ellipse cx="252.29" cy="217.18" fill="#fff" rx="6.76" ry="7.88"/><path d="m315.53 252.24c-1.77-40.23 75.14-45.38 84.15-11.59 9.01 33.8-80.45 41.52-84.15 11.59z" fill="#010101"/><path d="m677.43 515.89c-1.14 8.34-2.82 20.51-13.19 27.74-10.78 7.52-23.37 4.02-24.95 3.56-13.54-3.9-19.03-15.6-19.78-17.29-.49-.89-1.06-2.15-1.43-3.74-.32-1.4-.38-2.63-.36-3.56-.14-4.89 1.2-7 2.5-8.02 0 0 .46-.36 4.63-2.32s-.08-.03-3.03-1.25c-.41-.28-.87-.57-1.41-.84-.24-.12-.47-.23-.69-.32-.8-.3-1.87-.85-2.71-1.87-2.86-3.49-.56-9.44.18-11.41 3.33-8.86 14.46-14.9 24.24-17.11 3.84-.87 20.57-4.7 30.58 5.69 8.43 8.77 6.74 21.09 5.42 30.74z" fill="#f6d2a2" stroke="#000" stroke-miterlimit="10" stroke-width="2"/><path d="m27.51 529.91c1.14 8.34 2.82 20.51 13.19 27.74 10.78 7.52 23.37 4.02 24.95 3.56 13.54-3.9 19.03-15.6 19.78-17.29.49-.89 1.06-2.15 1.43-3.74.32-1.4.38-2.63.36-3.56.14-4.89-1.2-7-2.5-8.02 0 0-.46-.36-4.63-2.32s.08-.03 3.03-1.25c.41-.28.87-.57 1.41-.84.24-.12.47-.23.69-.32.8-.3 1.87-.85 2.71-1.87 2.86-3.49.56-9.44-.18-11.41-3.33-8.86-14.46-14.9-24.24-17.11-3.84-.87-20.57-4.7-30.58 5.69-8.43 8.77-6.74 21.1-5.42 30.74z" fill="#f6d2a2" stroke="#000" stroke-miterlimit="10" stroke-width="2"/><path d="m615.61 511.81c2.42.76 6.34 1.67 11.18 1.35 4.23-.28 7.6-1.39 9.8-2.32" fill="none" stroke="#000" stroke-miterlimit="10" stroke-width="2"/><path d="m95.75 525.84c-2.42.76-6.34 1.67-11.18 1.35-4.23-.28-7.6-1.39-9.8-2.32" fill="none" stroke="#000" stroke-miterlimit="10" stroke-width="2"/><path d="m131.14 911.09c0-9.25 6.39-16.73 14.28-16.73" fill="none" stroke="#000" stroke-miterlimit="10" stroke-width="2"/><path d="m584.09 899.59c0-12.6-4.26-22.8-9.51-22.8" fill="none" stroke="#000" stroke-miterlimit="10" stroke-width="2"/></g></svg>